<svg id="Capa_1" enable-background="new 0 0 512 512" height="107" viewBox="0 0 512 512" width="107" xmlns="http://www.w3.org/2000/svg" xmlns:xlink="http://www.w3.org/1999/xlink"><linearGradient id="SVGID_1_" gradientTransform="matrix(1 0 0 -1 0 1046)" gradientUnits="userSpaceOnUse" x1="377.838" x2="220.346" y1="536.825" y2="895.307"><stop offset=".0112" stop-color="#dcfced"/><stop offset=".3814" stop-color="#e7f0ed"/><stop offset="1" stop-color="#fddaec"/></linearGradient><linearGradient id="SVGID_2_" gradientUnits="userSpaceOnUse" x1="256" x2="256" y1="140.452" y2="340.056"><stop offset=".0028" stop-color="#fc80b7" stop-opacity="0"/><stop offset="1" stop-color="#fc80b7" stop-opacity=".6"/></linearGradient><g><path d="m471.476 127.57c-65.417-50.293-128.867-9.306-199.64-23.797-71.285-14.597-99.685-63.201-180.876-40.766-71.922 19.873-115.562 99.551-76.024 166.258 11.267 19.009 30.461 33.35 38.305 54.619 12.653 34.311-6.607 60.653-2.85 94.372 15.612 140.102 229.574 85.834 308.303 42.245 123.47-68.36 206.998-220.497 112.782-292.931z" fill="url(#SVGID_1_)"/><path d="m398.38 117.874v244.76c0 11.04-8.96 20-20 20h-244.76c-11.04 0-20-8.96-20-20v-244.76c0-11.04 8.96-20 20-20h244.76c11.04 0 20 8.96 20 20z" fill="#9afdd2"/><path d="m163.47 284.984v77.94c0 5.52-4.47 10-10 10h-37c-1.81-3.01-2.85-6.53-2.85-10.29v-87.65h39.85c5.53 0 10 4.47 10 10z" fill="#2bfcb4"/><path d="m398.38 194.974v118.8c-41.37 25.62-90.14 40.4-142.37 40.4-52.24 0-101.03-14.78-142.39-40.4v-118.8c41.37-25.62 90.15-40.4 142.39-40.4s101.01 14.78 142.37 40.4z" fill="#2bfcb4"/><path d="m454.065 226.576c7.194 7.715 7.193 19.66-.003 27.374-49.428 52.989-119.871 86.106-198.052 86.106-78.2 0-148.644-33.117-198.072-86.106-7.196-7.714-7.197-19.659-.002-27.374 49.414-52.99 119.875-86.124 198.074-86.124s148.643 33.133 198.055 86.124z" fill="#d1defd"/><path d="m404.76 184.934c-9.48 8.28-21.52 13.68-34.73 14.81-14.47 1.23-27.98-2.6-38.99-9.9l-19.46 8.57c-4.02 1.77-8.12-2.32-6.35-6.34l8.57-19.47c-5.41-8.15-8.91-17.66-9.86-27.92 36.71 6.55 70.84 20.5 100.82 40.25z" fill="#b7c5fc"/><circle cx="256" cy="240.254" fill="#839afa" r="58.629"/><g fill="#fff"><path d="m161.871 225.792c-1.28 0-2.559-.488-3.536-1.464-1.953-1.953-1.953-5.119 0-7.071l17.667-17.667c1.953-1.952 5.118-1.952 7.071 0 1.953 1.953 1.953 5.119 0 7.071l-17.667 17.667c-.976.975-2.255 1.464-3.535 1.464z"/><path d="m135.553 225.792c-1.28 0-2.559-.488-3.536-1.464-1.953-1.953-1.953-5.119 0-7.071l17.667-17.667c1.953-1.952 5.118-1.952 7.071 0 1.953 1.953 1.953 5.119 0 7.071l-17.667 17.667c-.976.975-2.255 1.464-3.535 1.464z"/><path d="m358.78 282.383c-1.28 0-2.559-.488-3.536-1.464-1.953-1.953-1.953-5.119 0-7.071l17.667-17.667c1.953-1.952 5.118-1.952 7.071 0 1.953 1.953 1.953 5.119 0 7.071l-17.667 17.667c-.976.976-2.255 1.464-3.535 1.464z"/><path d="m332.461 282.383c-1.28 0-2.559-.488-3.536-1.464-1.953-1.953-1.953-5.119 0-7.071l17.667-17.667c1.953-1.952 5.118-1.952 7.071 0 1.953 1.953 1.953 5.119 0 7.071l-17.667 17.667c-.976.976-2.255 1.464-3.535 1.464z"/></g><circle cx="256" cy="240.254" fill="#9fb1fa" r="46.198"/><path d="m302.2 240.254c0 25.51-20.69 46.2-46.2 46.2-9.05 0-17.49-2.6-24.61-7.1 3.44.82 7.03 1.25 10.72 1.25 25.51 0 46.2-20.68 46.2-46.2 0-16.47-8.63-30.93-21.61-39.11 20.35 4.84 35.5 23.13 35.5 44.96z" fill="#b7c5fc"/><circle cx="251.183" cy="242.133" fill="#6785f9" r="14.201"/><circle cx="266.472" cy="232.596" fill="#d1defd" r="10.65"/><path d="m454.065 226.576c7.194 7.715 7.193 19.66-.003 27.374-49.428 52.989-119.871 86.106-198.052 86.106-78.2 0-148.644-33.117-198.072-86.106-7.196-7.714-7.197-19.659-.002-27.374 49.414-52.99 119.875-86.124 198.074-86.124s148.643 33.133 198.055 86.124z" fill="url(#SVGID_2_)"/><path d="m82.698 106.68c-3.739 0-7.479-1.423-10.326-4.27-5.693-5.693-5.693-14.958 0-20.651 5.694-5.695 14.958-5.693 20.651 0 2.758 2.758 4.277 6.426 4.277 10.326s-1.519 7.568-4.278 10.326c-2.845 2.845-6.585 4.269-10.324 4.269zm0-19.197c-1.179 0-2.357.449-3.254 1.346-1.794 1.794-1.794 4.715 0 6.509 1.794 1.795 4.715 1.795 6.509 0 .869-.87 1.348-2.025 1.348-3.254s-.479-2.385-1.349-3.255c-.897-.897-2.076-1.346-3.254-1.346z" fill="#839afa"/><path d="m438.401 336.137c-3.739 0-7.479-1.423-10.326-4.27-2.758-2.758-4.277-6.425-4.277-10.326 0-3.9 1.519-7.568 4.278-10.326 5.693-5.694 14.957-5.694 20.651 0 2.758 2.758 4.277 6.425 4.277 10.326s-1.519 7.568-4.278 10.326c-2.846 2.846-6.585 4.27-10.325 4.27zm0-19.197c-1.179 0-2.357.449-3.254 1.346-.87.87-1.349 2.025-1.349 3.254s.479 2.385 1.348 3.255c1.795 1.795 4.715 1.795 6.509 0 .869-.87 1.348-2.025 1.348-3.255 0-1.229-.479-2.385-1.348-3.254-.896-.897-2.075-1.346-3.254-1.346z" fill="#27eaa6"/><path d="m114.619 51.915h-3.25v-3.25c0-2.761-2.239-5-5-5s-5 2.239-5 5v3.25h-3.25c-2.761 0-5 2.239-5 5s2.239 5 5 5h3.25v3.25c0 2.761 2.239 5 5 5s5-2.239 5-5v-3.25h3.25c2.761 0 5-2.239 5-5s-2.239-5-5-5z" fill="#fc80b7"/><path d="m105.948 393.876h-3.25v-3.25c0-2.761-2.239-5-5-5s-5 2.239-5 5v3.25h-3.25c-2.761 0-5 2.239-5 5s2.239 5 5 5h3.25v3.25c0 2.761 2.239 5 5 5s5-2.239 5-5v-3.25h3.25c2.761 0 5-2.239 5-5s-2.239-5-5-5z" fill="#fc80b7"/><path d="m146.795 417.75h-3.25v-3.25c0-2.761-2.239-5-5-5s-5 2.239-5 5v3.25h-3.25c-2.761 0-5 2.239-5 5s2.239 5 5 5h3.25v3.25c0 2.761 2.239 5 5 5s5-2.239 5-5v-3.25h3.25c2.761 0 5-2.239 5-5s-2.239-5-5-5z" fill="#27eaa6"/><path d="m361.247 417.922c26.815 0 48.552-21.737 48.552-48.552s-21.737-48.552-48.552-48.552h-24.235v97.104z" fill="#466ef8"/><circle cx="337.011" cy="369.37" fill="#2bfcb4" r="48.552"/><path d="m348.78 385.159h-19.008c.538-1.411.818-2.923.818-4.478v-6.311h6.421c2.761 0 5-2.239 5-5s-2.239-5-5-5h-6.421v-6.355c0-2.948 2.398-5.347 5.347-5.347s5.347 2.399 5.347 5.347c0 2.761 2.239 5 5 5s5-2.239 5-5c0-8.462-6.885-15.347-15.347-15.347s-15.347 6.885-15.347 15.347v6.355h-.961c-2.761 0-5 2.239-5 5s2.239 5 5 5h.961v6.311c0 .684-.267 1.327-.75 1.811-2.13 2.129-2.762 5.303-1.609 8.086s3.844 4.581 6.856 4.581h23.693c2.761 0 5-2.239 5-5s-2.239-5-5-5z" fill="#fff"/><path d="m153.473 358.806h-77.944c-5.523 0-10-4.477-10-10v-77.944c0-5.523 4.477-10 10-10h77.944c5.523 0 10 4.477 10 10v77.944c0 5.523-4.477 10-10 10z" fill="#fc80b7"/><path d="m163.469 270.865v77.94c0 5.52-4.47 10-10 10h-16.69c5.53 0 10-4.48 10-10v-77.94c0-5.53-4.47-10-10-10h16.69c5.53 0 10 4.47 10 10z" fill="#fca8ce"/><path d="m97.336 305.681c-7.174 0-13.011-5.836-13.011-13.011s5.837-13.011 13.011-13.011 13.011 5.837 13.011 13.011-5.836 13.011-13.011 13.011zm0-16.022c-1.661 0-3.011 1.351-3.011 3.011s1.351 3.011 3.011 3.011 3.011-1.351 3.011-3.011-1.35-3.011-3.011-3.011z" fill="#fddaec"/><path d="m131.666 340.01c-7.174 0-13.011-5.836-13.011-13.011s5.836-13.011 13.011-13.011 13.011 5.837 13.011 13.011-5.837 13.011-13.011 13.011zm0-16.022c-1.66 0-3.011 1.351-3.011 3.011s1.351 3.011 3.011 3.011c1.661 0 3.011-1.351 3.011-3.011s-1.351-3.011-3.011-3.011z" fill="#fddaec"/><path d="m100.308 329.028c-1.28 0-2.559-.488-3.536-1.464-1.953-1.953-1.953-5.119 0-7.071l28.387-28.386c1.954-1.952 5.119-1.951 7.071 0 1.953 1.953 1.953 5.119 0 7.071l-28.387 28.386c-.976.976-2.256 1.464-3.535 1.464z" fill="#fddaec"/><path d="m425.603 128.846c2.362-36.874-28.045-67.282-64.92-64.92-29.858 1.913-54.253 25.765-56.784 55.578-1.228 14.461 2.604 27.972 9.902 38.986l-8.57 19.463c-1.77 4.019 2.326 8.115 6.345 6.345l19.463-8.57c11.014 7.298 24.525 11.13 38.986 9.902 29.813-2.531 53.666-26.926 55.578-56.784z" fill="#fca8ce"/><g fill="#fff"><path d="m341.371 117.253c3.787 0 6.857 3.07 6.857 6.857s-3.07 6.857-6.857 6.857-6.857-3.07-6.857-6.857 3.07-6.857 6.857-6.857z"/><path d="m365.795 117.253c3.787 0 6.857 3.07 6.857 6.857s-3.07 6.857-6.857 6.857-6.857-3.07-6.857-6.857 3.07-6.857 6.857-6.857z"/><path d="m390.219 117.253c3.787 0 6.857 3.07 6.857 6.857s-3.07 6.857-6.857 6.857-6.857-3.07-6.857-6.857 3.07-6.857 6.857-6.857z"/></g></g></svg>